<svg width="300" height="21" fill="none" xmlns="http://www.w3.org/2000/svg"><path d="M1.66 20c-.18667 0-.35467-.0653-.504-.196-.13067-.1493-.196-.3173-.196-.504V1.1c0-.205334.06533-.373334.196-.504001.14933-.130667.31733-.196.504-.196h2.968c.46667 0 .784.177333.952.531999L12.412 11.684V1.1c0-.205334.0653-.373334.196-.504001.1493-.130667.3173-.196.504-.196h3.36c.2053 0 .3733.065333.504.196.1307.130667.196.298667.196.504001v18.172c0 .2053-.0653.3827-.196.532-.1307.1307-.2987.196-.504.196h-2.996c-.4107 0-.7187-.1773-.924-.532L5.72 9.108V19.3c0 .1867-.06533.3547-.196.504-.13067.1307-.29867.196-.504.196H1.66Zm18.305 0c-.1493 0-.2893-.056-.42-.168-.112-.1307-.168-.2707-.168-.42 0-.112.0093-.196.028-.252l6.58-17.976c.056-.224001.1773-.410667.364-.560001.1867-.149334.4293-.224.728-.224h4.144c.2987 0 .5413.074666.728.224.1867.149334.308.336.364.560001l6.552 17.976.056.252c0 .1493-.0653.2893-.196.42-.112.112-.252.168-.42.168h-3.444c-.448 0-.7467-.196-.896-.588l-1.092-2.856h-7.476l-1.064 2.856c-.1493.392-.4573.588-.924.588h-3.444Zm11.788-7.476-2.604-7.392-2.604 7.392h5.208ZM41.828 20c-.1867 0-.3547-.0653-.504-.196-.1307-.1493-.196-.3173-.196-.504V1.1c0-.205334.0653-.373334.196-.504001.1493-.130667.3173-.196.504-.196h3.024c.448 0 .7746.205333.98.616001l4.928 8.82 4.928-8.82c.2053-.410668.532-.616001.98-.616001h2.996c.2053 0 .3733.065333.504.196.1493.130667.224.298667.224.504001v18.2c0 .2053-.0747.3733-.224.504-.1307.1307-.2987.196-.504.196h-3.332c-.2054 0-.3827-.0653-.532-.196-.1307-.1307-.196-.2987-.196-.504V8.8l-3.136 5.852c-.2427.4293-.5694.644-.98.644h-1.456c-.2427 0-.4387-.056-.588-.168-.1494-.112-.28-.2707-.392-.476L45.888 8.8v10.5c0 .1867-.0654.3547-.196.504-.1307.1307-.2987.196-.504.196h-3.36Zm21.3675 0c-.1494 0-.2894-.056-.42-.168-.112-.1307-.168-.2707-.168-.42 0-.112.0093-.196.028-.252l6.58-17.976c.056-.224001.1773-.410667.364-.560001.1866-.149334.4293-.224.728-.224h4.144c.2986 0 .5413.074666.728.224.1866.149334.308.336.364.560001l6.552 17.976.056.252c0 .1493-.0654.2893-.196.42-.112.112-.252.168-.42.168h-3.444c-.448 0-.7467-.196-.896-.588l-1.092-2.856h-7.476l-1.064 2.856c-.1494.392-.4574.588-.924.588h-3.444Zm11.788-7.476-2.604-7.392-2.604 7.392h5.208ZM85.0584 20c-.1866 0-.3546-.0653-.504-.196-.1306-.1493-.196-.3173-.196-.504V1.1c0-.205334.0654-.373334.196-.504001.1494-.130667.3174-.196.504-.196h2.968c.4667 0 .784.177333.952.531999L95.8104 11.684V1.1c0-.205334.0654-.373334.196-.504001.1494-.130667.3174-.196.504-.196h3.36c.2056 0 .3736.065333.5036.196.131.130667.196.298667.196.504001v18.172c0 .2053-.065.3827-.196.532-.13.1307-.298.196-.5036.196h-2.996c-.4106 0-.7186-.1773-.924-.532l-6.832-10.36V19.3c0 .1867-.0653.3547-.196.504-.1306.1307-.2986.196-.504.196h-3.36Zm27.5166.28c-2.688 0-4.788-.6533-6.3-1.96-1.512-1.3253-2.314-3.2013-2.408-5.628-.018-.5413-.028-1.4-.028-2.576 0-1.176.01-2.03467.028-2.576.094-2.37067.906-4.2 2.436-5.488 1.55-1.288001 3.64-1.932001 6.272-1.932001 1.774 0 3.314.289333 4.62.868C118.521 1.56667 119.529 2.304 120.219 3.2c.71.896 1.083 1.82 1.12 2.772 0 .168-.065.308-.196.42-.112.112-.252.168-.42.168h-4.088c-.186 0-.336-.028-.448-.084-.112-.056-.205-.15867-.28-.308-.242-.54133-.625-1.008-1.148-1.4-.522-.41067-1.25-.616-2.184-.616-2.221 0-3.388 1.176-3.5 3.528-.018.52267-.028 1.33467-.028 2.436 0 1.0827.01 1.8947.028 2.436.112 2.464 1.307 3.696 3.584 3.696 1.102 0 1.979-.28 2.632-.84.672-.5787 1.008-1.456 1.008-2.632v-.532h-2.632c-.205 0-.373-.0653-.504-.196-.13-.1493-.196-.3267-.196-.532V9.444c0-.20533.066-.37333.196-.504.131-.14933.299-.224.504-.224h7.056c.206 0 .374.07467.504.224.131.13067.196.29867.196.504v3.192c0 1.5867-.364 2.9587-1.092 4.116-.728 1.1387-1.764 2.016-3.108 2.632-1.325.5973-2.874.896-4.648.896Zm10.503-.28c-.149 0-.289-.056-.42-.168-.112-.1307-.168-.2707-.168-.42 0-.112.01-.196.028-.252l6.58-17.976c.056-.224001.178-.410667.364-.560001.187-.149334.43-.224.728-.224h4.144c.299 0 .542.074666.728.224.187.149334.308.336.364.560001l6.552 17.976.056.252c0 .1493-.065.2893-.196.42-.112.112-.252.168-.42.168h-3.444c-.448 0-.746-.196-.896-.588l-1.092-2.856h-7.476l-1.064 2.856c-.149.392-.457.588-.924.588h-3.444Zm11.788-7.476-2.604-7.392-2.604 7.392h5.208ZM144.941 20c-.186 0-.354-.0653-.504-.196-.13-.1493-.196-.3173-.196-.504V1.1c0-.205334.066-.373334.196-.504001.15-.130667.318-.196.504-.196h2.968c.467 0 .784.177333.952.531999L155.693 11.684V1.1c0-.205334.066-.373334.196-.504001.15-.130667.318-.196.504-.196h3.36c.206 0 .374.065333.504.196.131.130667.196.298667.196.504001v18.172c0 .2053-.065.3827-.196.532-.13.1307-.298.196-.504.196h-2.996c-.41 0-.718-.1773-.924-.532l-6.832-10.36V19.3c0 .1867-.065.3547-.196.504-.13.1307-.298.196-.504.196h-3.36Zm20.125 0c-.186 0-.354-.0653-.504-.196-.13-.1493-.196-.3173-.196-.504V1.1c0-.205334.066-.373334.196-.504001.15-.130667.318-.196.504-.196h3.696c.206 0 .374.065333.504.196.131.130667.196.298667.196.504001v14.672h8.484c.206 0 .374.0747.504.224.131.1307.196.2987.196.504v2.8c0 .1867-.065.3547-.196.504-.13.1307-.298.196-.504.196h-12.88Zm16.707 0c-.186 0-.354-.0653-.504-.196-.13-.1493-.196-.3173-.196-.504V1.1c0-.205334.066-.373334.196-.504001.15-.130667.318-.196.504-.196h3.752c.206 0 .374.065333.504.196.15.130667.224.298667.224.504001v18.2c0 .2053-.074.3733-.224.504-.13.1307-.298.196-.504.196h-3.752Zm9.078 0c-.186 0-.354-.0653-.504-.196-.13-.1493-.196-.3173-.196-.504V1.1c0-.205334.066-.373334.196-.504001.15-.130667.318-.196.504-.196h3.528c.206 0 .374.065333.504.196.131.130667.196.298667.196.504001v6.216l5.18-6.384002c.224-.354666.588-.531999 1.092-.531999h4.032c.168 0 .308.065333.42.196.112.112.168.242667.168.392 0 .130671-.028.242671-.084.336001l-6.72 8.456 7.224 9.296c.075.0747.112.1867.112.336 0 .1493-.056.2893-.168.42-.112.112-.252.168-.42.168h-4.172c-.448 0-.821-.1867-1.12-.56l-5.544-6.916V19.3c0 .2053-.065.3733-.196.504-.13.1307-.298.196-.504.196h-3.528Zm18.567 0c-.187 0-.355-.0653-.504-.196-.131-.1493-.196-.3173-.196-.504V1.1c0-.205334.065-.373334.196-.504001.149-.130667.317-.196.504-.196h3.696c.205 0 .373.065333.504.196.13.130667.196.298667.196.504001v14.672h8.484c.205 0 .373.0747.504.224.13.1307.196.2987.196.504v2.8c0 .1867-.066.3547-.196.504-.131.1307-.299.196-.504.196h-12.88Zm14.887 0c-.149 0-.289-.056-.42-.168-.112-.1307-.168-.2707-.168-.42 0-.112.009-.196.028-.252l6.58-17.976c.056-.224001.177-.410667.364-.560001.187-.149334.429-.224.728-.224h4.144c.299 0 .541.074666.728.224.187.149334.308.336.364.560001l6.552 17.976.056.252c0 .1493-.065.2893-.196.42-.112.112-.252.168-.42.168h-3.444c-.448 0-.747-.196-.896-.588l-1.092-2.856h-7.476l-1.064 2.856c-.149.392-.457.588-.924.588h-3.444Zm11.788-7.476-2.604-7.392-2.604 7.392h5.208ZM246.168 20c-.187 0-.355-.0653-.504-.196-.131-.1493-.196-.3173-.196-.504V1.1c0-.205334.065-.373334.196-.504001.149-.130667.317-.196.504-.196h7.616c2.445 0 4.349.56 5.712 1.680001 1.381 1.10133 2.072 2.66933 2.072 4.704 0 1.30667-.308 2.41733-.924 3.332-.616.9147-1.466 1.6147-2.548 2.1l3.836 6.888c.056.112.084.2147.084.308 0 .1493-.066.2893-.196.42-.112.112-.243.168-.392.168h-3.724c-.542 0-.924-.252-1.148-.756l-3.192-6.16h-2.856V19.3c0 .2053-.075.3733-.224.504-.131.1307-.299.196-.504.196h-3.612Zm7.56-10.892c.858 0 1.512-.20533 1.96-.616.448-.42933.672-1.01733.672-1.764s-.224-1.33467-.672-1.764c-.43-.448-1.083-.672-1.96-.672h-3.22v4.816h3.22ZM264.743 20c-.205 0-.382-.0653-.532-.196-.13-.1307-.196-.2987-.196-.504v-1.988c0-.56.234-1.0173.7-1.372l2.912-2.856c1.699-1.3067 2.987-2.324 3.864-3.052.878-.728 1.54-1.39067 1.988-1.988.448-.59733.672-1.16667.672-1.708 0-1.47467-.728-2.212-2.184-2.212-.765 0-1.353.23333-1.764.7-.41.448-.681 1.01733-.812 1.708-.112.42933-.429.644-.952.644h-3.5c-.168 0-.308-.056-.42-.168-.112-.112-.168-.252-.168-.42.038-1.19467.364-2.28667.98-3.276.635-1.008 1.522-1.80133 2.66-2.380002 1.158-.597333 2.483-.8959997 3.976-.8959997 1.568 0 2.912.2519997 4.032.7560007 1.12.504001 1.97 1.213331 2.548 2.128001.579.91467.868 1.97867.868 3.192 0 1.30667-.41 2.50133-1.232 3.584-.802 1.064-2.034 2.2213-3.696 3.472l-2.576 2.604h7.196c.206 0 .374.0653.504.196.15.1307.224.2987.224.504V19.3c0 .2053-.074.3733-.224.504-.13.1307-.298.196-.504.196h-14.364Zm27.09 0c-.186 0-.354-.0653-.504-.196-.13-.1493-.196-.3173-.196-.504v-3.164h-8.708c-.205 0-.373-.0653-.504-.196-.13-.1307-.196-.2987-.196-.504v-2.66c0-.28.103-.5693.308-.868L290.181.875999c.262-.317333.607-.476 1.036-.476h4.088c.206 0 .374.065333.504.196.131.130667.196.298667.196.504001v10.864h2.464c.224 0 .402.0747.532.224.131.1307.196.2893.196.476v2.772c0 .2053-.065.3733-.196.504-.13.1307-.298.196-.504.196h-2.492V19.3c0 .1867-.065.3547-.196.504-.13.1307-.298.196-.504.196h-3.472Zm-.588-7.84V5.552l-4.704 6.608h4.704Z" fill="#295091"/></svg>